<?xml version="1.0" standalone="no"?>
<!DOCTYPE svg PUBLIC "-//W3C//DTD SVG 20010904//EN"
 "http://www.w3.org/TR/2001/REC-SVG-20010904/DTD/svg10.dtd">
<svg version="1.0" xmlns="http://www.w3.org/2000/svg"
 width="200.000000pt" height="200.000000pt" viewBox="0 0 200.000000 200.000000"
 preserveAspectRatio="xMidYMid meet">
<metadata>
Created by potrace 1.16, written by Peter Selinger 2001-2019
</metadata>
<g transform="translate(0.000000,200.000000) scale(0.100000,-0.100000)"
fill="#000000" stroke="none">
<path d="M1001 1884 c-132 -35 -274 -149 -339 -271 -27 -52 -42 -67 -90 -94
-166 -95 -272 -282 -272 -482 0 -153 52 -279 160 -388 108 -109 238 -163 396
-163 193 1 356 91 465 257 21 33 41 66 44 76 2 9 28 27 57 41 76 36 185 148
226 234 106 219 71 461 -92 635 -109 116 -241 171 -403 170 -54 0 -122 -7
-152 -15z m173 -422 c26 -15 61 -42 77 -62 49 -59 76 -181 38 -168 -7 2 -19
27 -28 56 -28 90 -89 148 -171 161 -26 5 -36 12 -38 28 -3 20 0 21 35 16 21
-3 60 -17 87 -31z m-253 -99 c36 -16 48 -27 52 -49 3 -16 13 -54 22 -84 10
-30 17 -65 16 -78 0 -13 13 -43 30 -68 30 -44 31 -64 4 -64 -9 0 -14 -10 -14
-27 1 -16 -3 -50 -8 -78 l-8 -50 -66 -5 c-70 -5 -95 -18 -102 -53 -2 -12 -5
17 -6 66 -1 101 1 99 -96 64 l-60 -22 -3 -102 -3 -101 -30 -11 c-17 -6 -33
-20 -36 -32 -5 -19 -10 -20 -57 -13 -91 12 -91 13 -46 69 22 28 53 64 68 80
65 68 69 112 18 209 -32 61 -36 75 -36 144 0 60 5 88 24 129 24 50 69 93 84
79 4 -4 17 -48 28 -98 16 -69 19 -97 11 -117 -22 -60 24 -111 81 -90 46 17 48
94 3 118 -14 8 -25 36 -40 100 -12 48 -21 94 -21 101 0 20 136 7 191 -17z
m-101 -551 c0 -57 -1 -58 -32 -67 -43 -13 -53 -55 -14 -55 26 0 66 31 66 51 0
8 5 8 15 -1 8 -7 15 -20 15 -30 0 -10 15 -40 33 -66 40 -58 70 -114 64 -120
-2 -2 -37 11 -78 30 -41 19 -110 44 -154 57 -78 22 -115 39 -84 39 35 1 44 19
49 101 l5 82 50 18 c28 10 53 18 58 18 4 1 7 -25 7 -57z"/>
<path d="M299 466 c15 -18 26 -270 13 -323 l-10 -43 40 0 c33 0 39 3 34 18 -2
9 -7 69 -10 132 l-5 115 42 -127 c24 -70 46 -130 49 -133 4 -4 21 40 38 97 50
165 50 165 47 25 l-2 -127 42 0 41 0 -10 38 c-14 48 -4 308 13 328 10 12 3 14
-43 14 l-55 0 -28 -96 c-16 -52 -31 -97 -35 -99 -3 -2 -19 41 -35 96 l-29 99
-54 0 c-45 0 -52 -2 -43 -14z"/>
<path d="M714 348 c-30 -14 -44 -50 -44 -109 0 -59 20 -113 48 -128 12 -6 39
-11 61 -11 68 0 101 48 101 146 0 48 -4 60 -29 85 -24 23 -38 29 -73 28 -24 0
-53 -5 -64 -11z"/>
<path d="M937 353 c-12 -21 -16 -64 -9 -84 8 -21 9 -20 30 15 13 23 29 36 42
36 23 0 26 -17 7 -45 -8 -11 -32 -55 -55 -97 l-43 -78 95 0 c86 0 96 2 106 21
7 11 9 33 5 47 l-6 26 -22 -26 c-25 -29 -62 -44 -72 -29 -3 6 19 56 49 111 31
55 56 102 56 105 0 8 -178 6 -183 -2z"/>
<path d="M1193 345 c-49 -34 -54 -141 -10 -207 20 -29 29 -33 74 -36 46 -3 53
0 76 28 48 56 48 172 0 210 -31 24 -108 27 -140 5z"/>
</g>
</svg>
